# xmcd
#
# Track frame offsets:
#	150
#	12685
#	24573
#	38027
#	48981
#	61418
#	70787
#	84638
#	94716
#	104902
#	117183
#	127556
#	146180
#	157482
#	168745
#	179859
#	191514
#	202563
#	212370
#	224397
#	232425
#	242242
#	254585
#	266009
#
# Disc length: 3681 seconds
#
# Revision: 1
# Processed by: cddbd v1.5.2PL0 Copyright (c) Steve Scherf et al.
# Submitted via: EZCDAudioConverter 2.4.0.1
#
DISCID=730e5f18
DTITLE=Chitãozinho and Xororó - (Sertanejo) Chitãozinho and Xororó (Vol. 02 e 03)
DYEAR=2002
DGENRE=Sertanejo
TTITLE0=Vai caindo uma lágrima (Vol. 02)
TTITLE1=Nostalgia cabocla (Vol. 02)
TTITLE2=Não é papel da gente (Vol. 02)
TTITLE3=Fiquei a cantar (Vol. 02)
TTITLE4=Quero Lhe Dizer Adeus (Vol. 02)
TTITLE5=O nosso dia também chegará (Vol. 02)
TTITLE6=Filha de Jesus (Vol. 02)
TTITLE7=Menina sorriso (Vol. 02)
TTITLE8=Ser ciumento (Vol. 02)
TTITLE9=A seca (Vol. 02)
TTITLE10=Belezas do Araguaia (Vol. 02)
TTITLE11=Casinha de praia (Vol. 02)
TTITLE12=Poema Sertanejo (Vol. 03)
TTITLE13=Carrossel da Vida (Vol. 03)
TTITLE14=Esta Saudade (Vol. 03)
TTITLE15=Saudade De Goiás (Vol. 03)
TTITLE16=Vivendo Ao Seu Redor (Vol. 03)
TTITLE17=Pequena Estudante (Vol. 03)
TTITLE18=Caminhos De Minha Infância (Vol. 03)
TTITLE19=Não Querem O Nosso Amor (Vol. 03)
TTITLE20=Daria Tudo Pra Você Ficar Comigo (Vol. 03)
TTITLE21=Venha Me Dar Tua Mão (Vol. 03)
TTITLE22=Baile Do Adeus (Vol. 03)
TTITLE23=Palavras,Amor e Fé (Vol. 03)
EXTD=
EXTT0=
EXTT1=
EXTT2=
EXTT3=
EXTT4=
EXTT5=
EXTT6=
EXTT7=
EXTT8=
EXTT9=
EXTT10=
EXTT11=
EXTT12=
EXTT13=
EXTT14=
EXTT15=
EXTT16=
EXTT17=
EXTT18=
EXTT19=
EXTT20=
EXTT21=
EXTT22=
EXTT23=
PLAYORDER=
